<?xml version="1.0" encoding="utf-8"?>
<!-- Generator: Adobe Illustrator 21.1.0, SVG Export Plug-In . SVG Version: 6.00 Build 0)  -->
<svg version="1.2" baseProfile="tiny" id="Capa_1" xmlns="http://www.w3.org/2000/svg" xmlns:xlink="http://www.w3.org/1999/xlink"
	 x="0px" y="0px" viewBox="0 0 581.5 200.7" overflow="scroll" xml:space="preserve">
<g>
	<g>
		<g>
			<g>
				<path fill="#00A13F" d="M55.7,153.7c-0.8-3.5-3.6-5.5-6.9-5.5c-6,0-8.5,5-8.5,10c0,4.9,2.5,10,8.5,10c4.2,0,6.8-3.2,7.3-7.3h2.2
					c-0.6,5.5-4.1,9.1-9.4,9.1c-7.1,0-10.7-5.6-10.7-11.8c0-6.2,3.6-11.8,10.7-11.8c4.3,0,8.5,2.6,9.1,7.3H55.7z"/>
				<path fill="#00A13F" d="M67.4,146.9h2v9.1h0.1c0.7-2,2.9-3.3,5.2-3.3c4.6,0,6,2.4,6,6.3v10.5h-2v-10.2c0-2.8-0.9-4.9-4.2-4.9
					c-3.2,0-5.1,2.4-5.1,5.6v9.5h-2V146.9z"/>
				<path fill="#00A13F" d="M90.9,146.9h2v3.2h-2V146.9z M90.9,153.1h2v16.4h-2V153.1z"/>
				<path fill="#00A13F" d="M103.1,146.9h2v22.6h-2V146.9z"/>
				<path fill="#00A13F" d="M116.4,161.9c0,2.9,1.6,6.4,5.4,6.4c2.9,0,4.5-1.7,5.1-4.2h2c-0.9,3.7-3,5.9-7.1,5.9
					c-5.2,0-7.4-4-7.4-8.7c0-4.3,2.2-8.7,7.4-8.7c5.3,0,7.4,4.6,7.2,9.2H116.4z M127,160.2c-0.1-3-2-5.8-5.2-5.8
					c-3.3,0-5.1,2.9-5.4,5.8H127z"/>
			</g>
			<g>
				<g>
					<path fill="#00A13F" d="M38.1,30.7h6.2v99.9h-6.2V30.7z"/>
					<path fill="#00A13F" d="M61.5,58.7h5.3V74h0.3C70.7,63.3,81.6,57,92.8,57c25.3,0,25.6,20.3,25.6,29.1v44.5h-5.3V85.1
						c0-7.4-0.8-23.5-20.4-23.5c-16.1,0-25.9,12.4-25.9,30.1v38.9h-5.3V58.7z"/>
					<path fill="#00A13F" d="M131.3,58.7h5.3V74h0.3c3.6-10.8,14.5-17.1,25.7-17.1c25.3,0,25.6,20.3,25.6,29.1v44.5H183V85.1
						c0-7.4-0.8-23.5-20.4-23.5c-16.1,0-25.9,12.4-25.9,30.1v38.9h-5.3V58.7z"/>
					<path fill="#00A13F" d="M225.7,57c21.1,0,33,17.2,33,37.6c0,20.4-11.9,37.6-33,37.6s-33-17.2-33-37.6
						C192.6,74.2,204.5,57,225.7,57z M225.7,127.6c18,0,27.7-15.8,27.7-33c0-17.2-9.7-33-27.7-33S198,77.4,198,94.6
						C198,111.8,207.6,127.6,225.7,127.6z"/>
					<path fill="#00A13F" d="M290.1,130.6h-6.6l-29-71.9h6.2l26,65.7h0.3l24.3-65.7h5.9L290.1,130.6z"/>
					<path fill="#00A13F" d="M414.9,107.9h-41.8V89.7l43-57.1H434v58.9h13.1v16.4H434v22.7h-19.1V107.9z M414.9,57.5h-0.4l-25.6,34
						h26V57.5z"/>
					<path fill="#00A13F" d="M455,30.7h43.1c25.9,0,45.3,16.2,45.3,49.4c0,29-14.8,50.5-45.3,50.5H455V30.7z M477,112.1h19.6
						c12.7,0,24.9-7.8,24.9-29.9c0-20.1-7-33-28.8-33H477V112.1z"/>
				</g>
				<path fill="#00A13F" d="M366,130.4h7.1c0,0-5.2-4.6-5.2-15.2V75.7c0-14.8-12.6-18.7-25.2-18.7c-14.8,0-24.1,6.1-26.7,18.2
					l5.4,0.8c2.4-9.3,10.3-14.3,21.3-14.3c16.4,0,20,10.9,20,14.1c0,11.7-1,13.3-24.8,15c-11.9,1-26.4,4.5-26.4,21.3
					c0,15.1,10.5,20.3,24.1,20.3c13.7,0,23.4-7.4,26.7-15.9h0.3c0,0-0.1,3,0,4c0,0.4,0.1,0.8,0.1,1.1C363.4,127,366,130.4,366,130.4
					z M335.7,127.6c-12.6,0-18.9-7-18.9-15.7c0-10.8,7.1-15.2,19.7-16.6c10.4-1.4,21.8-0.8,26-5.6v13.4
					C362.5,106.9,359.8,127.6,335.7,127.6z"/>
			</g>
		</g>
	</g>
</g>
</svg>
